<svg width="60" height="60" viewBox="0 0 60 60" fill="none" xmlns="http://www.w3.org/2000/svg">
<circle cx="30" cy="30" r="30" fill="#FDDB60"/>
<path d="M22.5 23.75L30 23.75C30.3315 23.75 30.6495 23.8817 30.8839 24.1161C31.1183 24.3505 31.25 24.6685 31.25 25C31.25 25.3315 31.1183 25.6495 30.8839 25.8839C30.6495 26.1183 30.3315 26.25 30 26.25L22.5 26.25C22.1685 26.25 21.8505 26.1183 21.6161 25.8839C21.3817 25.6495 21.25 25.3315 21.25 25C21.25 24.6685 21.3817 24.3505 21.6161 24.1161C21.8505 23.8817 22.1685 23.75 22.5 23.75V23.75ZM22.5 33.75L32.5 33.75C32.8315 33.75 33.1495 33.8817 33.3839 34.1161C33.6183 34.3505 33.75 34.6685 33.75 35C33.75 35.3315 33.6183 35.6495 33.3839 35.8839C33.1495 36.1183 32.8315 36.25 32.5 36.25L22.5 36.25C22.1685 36.25 21.8505 36.1183 21.6161 35.8839C21.3817 35.6495 21.25 35.3315 21.25 35C21.25 34.6685 21.3817 34.3505 21.6161 34.1161C21.8505 33.8817 22.1685 33.75 22.5 33.75ZM22.5 28.75L37.5 28.75C37.8315 28.75 38.1495 28.8817 38.3839 29.1161C38.6183 29.3505 38.75 29.6685 38.75 30C38.75 30.3315 38.6183 30.6495 38.3839 30.8839C38.1495 31.1183 37.8315 31.25 37.5 31.25L22.5 31.25C22.1685 31.25 21.8505 31.1183 21.6161 30.8839C21.3817 30.6495 21.25 30.3315 21.25 30C21.25 29.6685 21.3817 29.3505 21.6161 29.1161C21.8505 28.8817 22.1685 28.75 22.5 28.75Z" fill="#262626"/>
</svg>
