<svg width="100" height="200" viewBox="0 0 400 330" fill="none" xmlns="http://www.w3.org/2000/svg">
<rect x="76.5" y="106.5" width="247" height="147" stroke="#262626" stroke-width="3"/>
<path d="M150 105C150 114.849 148.06 124.602 144.291 133.701C140.522 142.801 134.997 151.069 128.033 158.033C121.069 164.997 112.801 170.522 103.701 174.291C94.6018 178.06 84.8491 180 75 180V105H150Z" fill="#3B44F6"/>
<path d="M250 255C250 245.151 251.94 235.398 255.709 226.299C259.478 217.199 265.003 208.931 271.967 201.967C278.931 195.003 287.199 189.478 296.299 185.709C305.398 181.94 315.151 180 325 180V255H250Z" fill="#FDDB60"/>
<path d="M79.4028 103.5L200 1.96088L320.597 103.5H79.4028Z" stroke="#262626" stroke-width="3"/>
</svg>
